<svg width="167" height="23" xmlns="http://www.w3.org/2000/svg"><path d="M72.089 14.599H83.02l-5.774-9.306-10.601 16.822-4.831.004L74.718 1.917c.548-.821 1.492-1.315 2.521-1.315 1.015 0 1.946.479 2.496 1.279l12.949 20.238-4.834-.004-2.267-3.76H74.505l-2.416-3.756zm50.154 3.76V.812h-4.1v19.262c0 .533.217 1.043.597 1.423a2.12 2.12 0 0 0 1.502.618h18.681l2.41-3.756h-19.09zm-67.775-3.141a7.204 7.204 0 0 0 0-14.406H36.54v21.303h4.095V4.567h13.551a3.444 3.444 0 0 1 3.447 3.448 3.447 3.447 0 0 1-3.447 3.45l-11.545-.004 12.226 10.654h5.952l-8.227-6.901 1.876.004zm-43.141 6.897c-5.881 0-10.652-4.766-10.652-10.65S5.446.812 11.327.812H23.71c5.882 0 10.651 4.769 10.651 10.653 0 5.885-4.769 10.654-10.651 10.654l-12.383-.004zm12.107-3.754a6.894 6.894 0 0 0 6.896-6.896 6.895 6.895 0 0 0-6.896-6.897l-11.832-.001a6.897 6.897 0 0 0 0 13.794h11.832zm77.797 3.754c-5.88 0-10.653-4.766-10.653-10.65S95.351.812 101.231.812h14.715l-2.411 3.756-12.027-.001a6.897 6.897 0 1 0 0 13.794h14.77l-2.406 3.754h-12.641zm50.113-3.754a6.894 6.894 0 0 1-6.633-5.012h17.511l2.412-3.755-19.928-.002a6.898 6.898 0 0 1 6.638-5.025l12.019.001 2.415-3.756h-14.715c-5.879 0-10.651 4.769-10.651 10.653s4.772 10.65 10.651 10.65h12.641l2.408-3.754h-14.768z" fill="#312D2A" fill-rule="evenodd"/></svg>